# xmcd
#
# Track frame offsets: 
#        150
#        12541
#        28688
#        43982
#        53772
#        69733
#        80123
#        96979
#        112560
#        127472
#
# Disc length: 1977 seconds
#
# Revision: 1
# Processed by: cddbd v1.5.2PL0 Copyright (c) Steve Scherf et al.
# Submitted via: ExactAudioCopy v1.0b1
#
DISCID=8f07b70a
DTITLE=Rex Hobart and The Misery Boys - Your Favorite Fool
DYEAR=2002
DGENRE=Country
TTITLE0=You've Got Some Cheating To Do
TTITLE1=Your Favorite Fool
TTITLE2=Take It Back (Before You Mean It)
TTITLE3=Gotta Get Back To Forgetting You
TTITLE4=Golden Ring
TTITLE5=I Don't Feel It Anymore
TTITLE6=Promise To Be Honest
TTITLE7=Let's Just Call It Love
TTITLE8=Another Bad Habit Of Mine
TTITLE9=I Should Be Gone By Now
EXTD=
EXTT0=
EXTT1=
EXTT2=
EXTT3=
EXTT4=
EXTT5=
EXTT6=
EXTT7=
EXTT8=
EXTT9=
PLAYORDER=
